<svg width="262" height="41" viewBox="0 0 262 41" fill="none" xmlns="http://www.w3.org/2000/svg">
<rect x="0.5" y="0.5" width="260.206" height="40" stroke="white"/>
<path d="M28.7619 10.4786C28.6224 10.3658 28.4595 10.2857 28.285 10.2442C28.1105 10.2026 27.9289 10.2007 27.7536 10.2386C26.4709 10.5074 25.1468 10.5108 23.8627 10.2486C22.5787 9.98646 21.3619 9.46423 20.2872 8.71409C20.0863 8.5747 19.8476 8.5 19.603 8.5C19.3585 8.5 19.1197 8.5747 18.9188 8.71409C17.8442 9.46423 16.6274 9.98646 15.3433 10.2486C14.0593 10.5108 12.7351 10.5074 11.4525 10.2386C11.2771 10.2007 11.0955 10.2026 10.9211 10.2442C10.7466 10.2857 10.5836 10.3658 10.4441 10.4786C10.3049 10.5916 10.1927 10.7344 10.1158 10.8964C10.039 11.0584 9.9994 11.2356 10 11.4149V20.3577C9.99894 22.0788 10.4091 23.7752 11.1962 25.3056C11.9834 26.8361 13.1248 28.1564 14.5254 29.1565L18.9068 32.2775C19.1101 32.4222 19.3535 32.5 19.603 32.5C19.8526 32.5 20.0959 32.4222 20.2992 32.2775L24.6806 29.1565C26.0812 28.1564 27.2226 26.8361 28.0098 25.3056C28.797 23.7752 29.2071 22.0788 29.206 20.3577V11.4149C29.2066 11.2356 29.1671 11.0584 29.0902 10.8964C29.0133 10.7344 28.9011 10.5916 28.7619 10.4786ZM26.8053 20.3577C26.8062 21.6959 26.4875 23.0149 25.8758 24.205C25.264 25.3951 24.3769 26.4219 23.2882 27.1999L19.603 29.8287L15.9179 27.1999C14.8292 26.4219 13.942 25.3951 13.3303 24.205C12.7185 23.0149 12.3998 21.6959 12.4008 20.3577V12.7954C14.9173 13.0108 17.4376 12.4269 19.603 11.1268C21.7684 12.4269 24.2888 13.0108 26.8053 12.7954V20.3577Z" fill="white"/>
<path d="M46.7568 15.0117C45.9365 15.0117 45.2021 15.1602 44.5537 15.457C43.9131 15.7539 43.3701 16.1836 42.9248 16.7461C42.4795 17.3008 42.1396 17.9766 41.9052 18.7734C41.6709 19.5625 41.5537 20.4531 41.5537 21.4453C41.5537 22.7734 41.7412 23.918 42.1162 24.8789C42.4912 25.832 43.0615 26.5664 43.8271 27.082C44.5927 27.5898 45.5615 27.8438 46.7334 27.8438C47.4599 27.8438 48.167 27.7734 48.8545 27.6328C49.542 27.4922 50.2529 27.3008 50.9873 27.0586V29.4492C50.292 29.7227 49.5888 29.9219 48.8779 30.0469C48.167 30.1719 47.3466 30.2344 46.417 30.2344C44.667 30.2344 43.2138 29.8711 42.0576 29.1445C40.9091 28.418 40.0498 27.3945 39.4795 26.0742C38.917 24.7539 38.6357 23.207 38.6357 21.4336C38.6357 20.1367 38.8154 18.9492 39.1748 17.8711C39.5341 16.793 40.0576 15.8633 40.7451 15.082C41.4326 14.293 42.2802 13.6875 43.2881 13.2656C44.3037 12.8359 45.4638 12.6211 46.7685 12.6211C47.6279 12.6211 48.4716 12.7188 49.2998 12.9141C50.1357 13.1016 50.9091 13.3711 51.6201 13.7227L50.6357 16.043C50.042 15.7617 49.4209 15.5195 48.7724 15.3164C48.124 15.1133 47.4521 15.0117 46.7568 15.0117ZM69.8779 21.4102C69.8779 22.7305 69.7099 23.9336 69.374 25.0195C69.0459 26.0977 68.5498 27.0273 67.8857 27.8086C67.2216 28.582 66.3896 29.1797 65.3896 29.6016C64.3896 30.0234 63.2177 30.2344 61.874 30.2344C60.5068 30.2344 59.3193 30.0234 58.3115 29.6016C57.3115 29.1797 56.4795 28.5781 55.8154 27.7969C55.1591 27.0156 54.667 26.082 54.3388 24.9961C54.0107 23.9102 53.8466 22.707 53.8466 21.3867C53.8466 19.6211 54.1357 18.082 54.7138 16.7695C55.2998 15.4492 56.1865 14.4258 57.374 13.6992C58.5693 12.9648 60.0771 12.5977 61.8974 12.5977C63.6787 12.5977 65.1591 12.9609 66.3388 13.6875C67.5185 14.4141 68.4013 15.4375 68.9873 16.7578C69.581 18.0703 69.8779 19.6211 69.8779 21.4102ZM56.7998 21.4102C56.7998 22.7305 56.9795 23.875 57.3388 24.8438C57.6982 25.8047 58.249 26.5469 58.9912 27.0703C59.7412 27.5859 60.7021 27.8438 61.874 27.8438C63.0537 27.8438 64.0146 27.5859 64.7568 27.0703C65.499 26.5469 66.0459 25.8047 66.3974 24.8438C66.749 23.875 66.9248 22.7305 66.9248 21.4102C66.9248 19.4023 66.5224 17.832 65.7177 16.6992C64.9209 15.5586 63.6474 14.9883 61.8974 14.9883C60.7256 14.9883 59.7607 15.2461 59.0029 15.7617C58.2529 16.2773 57.6982 17.0156 57.3388 17.9766C56.9795 18.9297 56.7998 20.0742 56.7998 21.4102ZM87.4677 21.2695C87.4677 23.1992 87.1084 24.8125 86.3896 26.1094C85.6709 27.3984 84.6279 28.3711 83.2607 29.0273C81.8935 29.6758 80.2451 30 78.3154 30H73.5576V12.8672H78.831C80.6045 12.8672 82.1357 13.1875 83.4248 13.8281C84.7138 14.4609 85.7099 15.4023 86.4131 16.6523C87.1162 17.8945 87.4677 19.4336 87.4677 21.2695ZM84.5381 21.3516C84.5381 19.9453 84.3154 18.7891 83.8701 17.8828C83.4326 16.9766 82.7841 16.3047 81.9248 15.8672C81.0732 15.4219 80.0224 15.1992 78.7724 15.1992H76.3701V27.6445H78.3623C80.4326 27.6445 81.9795 27.1172 83.0029 26.0625C84.0263 25.0078 84.5381 23.4375 84.5381 21.3516ZM100.862 30H91.1591V12.8672H100.862V15.2344H93.9716V19.8867H100.429V22.2422H93.9716V27.6211H100.862V30ZM111.479 20.6953H117.878V29.2969C116.979 29.5938 116.05 29.8242 115.089 29.9883C114.128 30.1523 113.05 30.2344 111.854 30.2344C110.112 30.2344 108.636 29.8906 107.425 29.2031C106.222 28.5078 105.308 27.5039 104.683 26.1914C104.058 24.8711 103.745 23.2812 103.745 21.4219C103.745 19.6328 104.093 18.082 104.788 16.7695C105.483 15.4492 106.495 14.4297 107.823 13.7109C109.151 12.9844 110.761 12.6211 112.651 12.6211C113.581 12.6211 114.479 12.7148 115.347 12.9023C116.222 13.082 117.022 13.332 117.749 13.6523L116.765 15.9727C116.186 15.6992 115.538 15.4688 114.819 15.2812C114.101 15.0938 113.354 15 112.581 15C111.354 15 110.296 15.2656 109.405 15.7969C108.522 16.3281 107.843 17.0781 107.366 18.0469C106.89 19.0078 106.651 20.1445 106.651 21.457C106.651 22.7305 106.843 23.8477 107.226 24.8086C107.608 25.7695 108.206 26.5195 109.019 27.0586C109.839 27.5898 110.897 27.8555 112.194 27.8555C112.843 27.8555 113.394 27.8203 113.847 27.75C114.3 27.6797 114.718 27.6016 115.101 27.5156V23.0977H111.479V20.6953ZM135.433 12.8672V23.9531C135.433 25.1484 135.179 26.2188 134.671 27.1641C134.171 28.1094 133.413 28.8594 132.397 29.4141C131.382 29.9609 130.104 30.2344 128.565 30.2344C126.37 30.2344 124.698 29.6602 123.55 28.5117C122.409 27.3555 121.839 25.8203 121.839 23.9062V12.8672H124.651V23.6602C124.651 25.0898 124.987 26.1445 125.659 26.8242C126.331 27.5039 127.335 27.8438 128.671 27.8438C129.593 27.8438 130.343 27.6836 130.921 27.3633C131.507 27.0352 131.936 26.5586 132.21 25.9336C132.491 25.3008 132.632 24.5391 132.632 23.6484V12.8672H135.433ZM150.433 30L148.757 25.2422H142.206L140.53 30H137.565L143.94 12.7969H147.058L153.421 30H150.433ZM148.03 22.8281L146.401 18.1406C146.339 17.9375 146.249 17.6523 146.132 17.2852C146.015 16.9102 145.897 16.5312 145.78 16.1484C145.663 15.7578 145.565 15.4297 145.487 15.1641C145.409 15.4844 145.311 15.8438 145.194 16.2422C145.085 16.6328 144.976 17 144.866 17.3438C144.765 17.6875 144.686 17.9531 144.632 18.1406L142.991 22.8281H148.03ZM160.499 12.8672C161.976 12.8672 163.194 13.0469 164.155 13.4062C165.124 13.7656 165.843 14.3125 166.311 15.0469C166.788 15.7812 167.026 16.7148 167.026 17.8477C167.026 18.6914 166.87 19.4102 166.558 20.0039C166.245 20.5977 165.835 21.0898 165.327 21.4805C164.819 21.8711 164.276 22.1836 163.698 22.418L168.561 30H165.386L161.249 23.1328H158.495V30H155.683V12.8672H160.499ZM160.311 15.2109H158.495V20.8125H160.44C161.745 20.8125 162.69 20.5703 163.276 20.0859C163.87 19.6016 164.167 18.8867 164.167 17.9414C164.167 16.9492 163.851 16.2461 163.218 15.832C162.593 15.418 161.624 15.2109 160.311 15.2109ZM184.921 21.2695C184.921 23.1992 184.561 24.8125 183.843 26.1094C183.124 27.3984 182.081 28.3711 180.714 29.0273C179.347 29.6758 177.698 30 175.769 30H171.011V12.8672H176.284C178.058 12.8672 179.589 13.1875 180.878 13.8281C182.167 14.4609 183.163 15.4023 183.866 16.6523C184.569 17.8945 184.921 19.4336 184.921 21.2695ZM181.991 21.3516C181.991 19.9453 181.769 18.7891 181.323 17.8828C180.886 16.9766 180.237 16.3047 179.378 15.8672C178.526 15.4219 177.476 15.1992 176.226 15.1992H173.823V27.6445H175.815C177.886 27.6445 179.433 27.1172 180.456 26.0625C181.479 25.0078 181.991 23.4375 181.991 21.3516ZM187.933 28.5469C187.933 27.9062 188.097 27.457 188.425 27.1992C188.761 26.9336 189.167 26.8008 189.644 26.8008C190.12 26.8008 190.526 26.9336 190.862 27.1992C191.206 27.457 191.378 27.9062 191.378 28.5469C191.378 29.1719 191.206 29.625 190.862 29.9062C190.526 30.1797 190.12 30.3164 189.644 30.3164C189.167 30.3164 188.761 30.1797 188.425 29.9062C188.097 29.625 187.933 29.1719 187.933 28.5469ZM195.198 30V12.8672H198.011V27.6094H205.288V30H195.198ZM218.87 30L217.194 25.2422H210.644L208.968 30H206.003L212.378 12.7969H215.495L221.858 30H218.87ZM216.468 22.8281L214.839 18.1406C214.776 17.9375 214.686 17.6523 214.569 17.2852C214.452 16.9102 214.335 16.5312 214.218 16.1484C214.101 15.7578 214.003 15.4297 213.925 15.1641C213.847 15.4844 213.749 15.8438 213.632 16.2422C213.522 16.6328 213.413 17 213.304 17.3438C213.202 17.6875 213.124 17.9531 213.069 18.1406L211.429 22.8281H216.468ZM224.12 12.8672H229.218C231.429 12.8672 233.097 13.1875 234.222 13.8281C235.347 14.4688 235.909 15.5742 235.909 17.1445C235.909 17.8008 235.792 18.3945 235.558 18.9258C235.331 19.4492 234.999 19.8828 234.561 20.2266C234.124 20.5625 233.585 20.7891 232.944 20.9062V21.0234C233.608 21.1406 234.198 21.3477 234.714 21.6445C235.237 21.9414 235.647 22.3672 235.944 22.9219C236.249 23.4766 236.401 24.1953 236.401 25.0781C236.401 26.125 236.151 27.0156 235.651 27.75C235.159 28.4844 234.452 29.043 233.53 29.4258C232.616 29.8086 231.53 30 230.272 30H224.12V12.8672ZM226.933 19.9336H229.628C230.901 19.9336 231.784 19.7266 232.276 19.3125C232.769 18.8984 233.015 18.293 233.015 17.4961C233.015 16.6836 232.722 16.0977 232.136 15.7383C231.558 15.3789 230.636 15.1992 229.37 15.1992H226.933V19.9336ZM226.933 22.207V27.6445H229.897C231.21 27.6445 232.132 27.3906 232.663 26.8828C233.194 26.375 233.46 25.6875 233.46 24.8203C233.46 24.2891 233.339 23.8281 233.097 23.4375C232.862 23.0469 232.476 22.7461 231.936 22.5352C231.397 22.3164 230.671 22.207 229.757 22.207H226.933ZM249.831 25.3359C249.831 26.3516 249.581 27.2266 249.081 27.9609C248.589 28.6953 247.878 29.2578 246.948 29.6484C246.026 30.0391 244.925 30.2344 243.644 30.2344C243.019 30.2344 242.421 30.1992 241.851 30.1289C241.28 30.0586 240.741 29.957 240.233 29.8242C239.733 29.6836 239.276 29.5156 238.862 29.3203V26.6719C239.558 26.9766 240.335 27.2539 241.194 27.5039C242.054 27.7461 242.929 27.8672 243.819 27.8672C244.546 27.8672 245.147 27.7734 245.624 27.5859C246.108 27.3906 246.468 27.1172 246.702 26.7656C246.936 26.4062 247.054 25.9883 247.054 25.5117C247.054 25.0039 246.917 24.5742 246.644 24.2227C246.37 23.8711 245.956 23.5508 245.401 23.2617C244.854 22.9648 244.167 22.6484 243.339 22.3125C242.776 22.0859 242.237 21.8281 241.722 21.5391C241.214 21.25 240.761 20.9102 240.362 20.5195C239.964 20.1289 239.647 19.668 239.413 19.1367C239.186 18.5977 239.073 17.9648 239.073 17.2383C239.073 16.2695 239.304 15.4414 239.765 14.7539C240.233 14.0664 240.89 13.5391 241.733 13.1719C242.585 12.8047 243.577 12.6211 244.71 12.6211C245.608 12.6211 246.452 12.7148 247.241 12.9023C248.038 13.0898 248.819 13.3555 249.585 13.6992L248.694 15.9609C247.991 15.6719 247.308 15.4414 246.644 15.2695C245.987 15.0977 245.315 15.0117 244.628 15.0117C244.034 15.0117 243.53 15.1016 243.116 15.2812C242.702 15.4609 242.386 15.7148 242.167 16.043C241.956 16.3633 241.851 16.7461 241.851 17.1914C241.851 17.6914 241.972 18.1133 242.214 18.457C242.464 18.793 242.847 19.1016 243.362 19.3828C243.886 19.6641 244.558 19.9766 245.378 20.3203C246.323 20.7109 247.124 21.1211 247.78 21.5508C248.444 21.9805 248.952 22.4961 249.304 23.0977C249.655 23.6914 249.831 24.4375 249.831 25.3359Z" fill="white"/>
</svg>
